<svg xmlns="http://www.w3.org/2000/svg" xmlns:xlink="http://www.w3.org/1999/xlink" width="1080" zoomAndPan="magnify" viewBox="0 0 810 809.999993" height="1080" preserveAspectRatio="xMidYMid meet" version="1.2"><defs/><g id="aa3ac5f9ae"><rect x="0" width="810" y="0" height="809.999993" style="fill:#ffffff;fill-opacity:1;stroke:none;"/><rect x="0" width="810" y="0" height="809.999993" style="fill:#ffffff;fill-opacity:1;stroke:none;"/><g style="fill:#3ab6fb;fill-opacity:1;"><g transform="translate(117.823966, 377.709611)"><path style="stroke:none" d="M 18 0 L 18 -139.71875 L 51.8125 -139.71875 L 88.890625 -40.34375 L 125.96875 -139.71875 L 159.78125 -139.71875 L 159.78125 0 L 135.65625 0 L 135.65625 -104.515625 L 101.046875 -12.15625 L 76.734375 -12.15625 L 42.125 -104.515625 L 42.125 0 Z M 18 0 "/></g><g transform="translate(295.598128, 377.709611)"><path style="stroke:none" d="M 55.46875 1.984375 C 46.96875 1.984375 39.582031 0.597656 33.3125 -2.171875 C 27.050781 -4.941406 21.84375 -8.734375 17.6875 -13.546875 C 13.539062 -18.359375 10.460938 -23.8125 8.453125 -29.90625 C 6.441406 -36.007812 5.4375 -42.390625 5.4375 -49.046875 C 5.4375 -55.503906 6.390625 -61.796875 8.296875 -67.921875 C 10.210938 -74.054688 13.144531 -79.609375 17.09375 -84.578125 C 21.050781 -89.554688 26.078125 -93.515625 32.171875 -96.453125 C 38.273438 -99.390625 45.515625 -100.859375 53.890625 -100.859375 C 60.804688 -100.859375 66.816406 -99.851562 71.921875 -97.84375 C 77.035156 -95.832031 81.375 -93.113281 84.9375 -89.6875 C 88.5 -86.257812 91.363281 -82.382812 93.53125 -78.0625 C 95.707031 -73.75 97.273438 -69.265625 98.234375 -64.609375 C 99.191406 -59.960938 99.671875 -55.429688 99.671875 -51.015625 C 99.671875 -48.972656 99.585938 -47.0625 99.421875 -45.28125 C 99.253906 -43.5 99.039062 -42.25 98.78125 -41.53125 L 30.953125 -41.53125 C 31.671875 -37.238281 32.96875 -33.460938 34.84375 -30.203125 C 36.726562 -26.941406 39.382812 -24.40625 42.8125 -22.59375 C 46.238281 -20.78125 50.523438 -19.875 55.671875 -19.875 C 60.148438 -19.875 64.363281 -20.664062 68.3125 -22.25 C 72.269531 -23.832031 75.960938 -26.535156 79.390625 -30.359375 L 96.015625 -15.828125 C 90.609375 -9.828125 84.570312 -5.359375 77.90625 -2.421875 C 71.25 0.515625 63.769531 1.984375 55.46875 1.984375 Z M 30.953125 -58.9375 L 75.9375 -58.9375 C 75.144531 -65.988281 72.800781 -71.359375 68.90625 -75.046875 C 65.019531 -78.734375 59.945312 -80.578125 53.6875 -80.578125 C 48.945312 -80.578125 45.039062 -79.640625 41.96875 -77.765625 C 38.90625 -75.890625 36.5 -73.316406 34.75 -70.046875 C 33.007812 -66.785156 31.742188 -63.082031 30.953125 -58.9375 Z M 30.953125 -58.9375 "/></g><g transform="translate(401.095919, 377.709611)"><path style="stroke:none" d="M 14.34375 0 L 14.34375 -98.78125 L 37.875 -98.78125 L 37.875 -82.171875 C 39.320312 -86.191406 41.410156 -89.582031 44.140625 -92.34375 C 46.878906 -95.113281 50.007812 -97.222656 53.53125 -98.671875 C 57.0625 -100.128906 60.675781 -100.859375 64.375 -100.859375 C 67.664062 -100.859375 70.910156 -100.28125 74.109375 -99.125 C 77.304688 -97.96875 80.09375 -96.171875 82.46875 -93.734375 L 71.484375 -73.953125 C 68.128906 -76.203125 64.535156 -77.328125 60.703125 -77.328125 C 57.867188 -77.328125 55.082031 -76.648438 52.34375 -75.296875 C 49.613281 -73.941406 47.144531 -71.832031 44.9375 -68.96875 C 42.726562 -66.101562 40.960938 -62.410156 39.640625 -57.890625 C 38.328125 -53.378906 37.671875 -47.988281 37.671875 -41.71875 L 37.671875 0 Z M 14.34375 0 "/></g><g transform="translate(481.677645, 377.709611)"><path style="stroke:none" d="M 44.09375 1.984375 C 37.175781 1.984375 30.878906 0.734375 25.203125 -1.765625 C 19.535156 -4.273438 14.773438 -7.625 10.921875 -11.8125 C 7.066406 -16 4.316406 -20.628906 2.671875 -25.703125 L 21.859375 -34.21875 C 22.773438 -31.84375 24.023438 -29.398438 25.609375 -26.890625 C 27.191406 -24.390625 29.382812 -22.28125 32.1875 -20.5625 C 34.988281 -18.851562 38.5625 -18 42.90625 -18 C 46.664062 -18 49.710938 -18.609375 52.046875 -19.828125 C 54.390625 -21.046875 56.125 -22.578125 57.25 -24.421875 C 58.375 -26.265625 58.9375 -28.046875 58.9375 -29.765625 C 58.9375 -32.140625 58.046875 -34.035156 56.265625 -35.453125 C 54.484375 -36.867188 52.109375 -38.035156 49.140625 -38.953125 C 46.171875 -39.878906 42.921875 -40.769531 39.390625 -41.625 C 35.867188 -42.476562 32.34375 -43.53125 28.8125 -44.78125 C 25.289062 -46.039062 22.046875 -47.691406 19.078125 -49.734375 C 16.117188 -51.773438 13.75 -54.425781 11.96875 -57.6875 C 10.1875 -60.957031 9.296875 -65.097656 9.296875 -70.109375 C 9.296875 -75.316406 10.300781 -79.847656 12.3125 -83.703125 C 14.320312 -87.554688 17.039062 -90.75 20.46875 -93.28125 C 23.894531 -95.820312 27.816406 -97.71875 32.234375 -98.96875 C 36.648438 -100.226562 41.234375 -100.859375 45.984375 -100.859375 C 54.484375 -100.859375 61.910156 -98.945312 68.265625 -95.125 C 74.628906 -91.300781 79.691406 -86.054688 83.453125 -79.390625 L 64.765625 -69.21875 C 63.640625 -71.257812 62.238281 -73.234375 60.5625 -75.140625 C 58.882812 -77.054688 56.789062 -78.640625 54.28125 -79.890625 C 51.78125 -81.140625 48.75 -81.765625 45.1875 -81.765625 C 41.226562 -81.765625 38.113281 -80.925781 35.84375 -79.25 C 33.570312 -77.570312 32.4375 -75.578125 32.4375 -73.265625 C 32.4375 -71.160156 33.34375 -69.445312 35.15625 -68.125 C 36.96875 -66.8125 39.375 -65.675781 42.375 -64.71875 C 45.375 -63.757812 48.648438 -62.785156 52.203125 -61.796875 C 55.765625 -60.804688 59.320312 -59.585938 62.875 -58.140625 C 66.4375 -56.691406 69.71875 -54.84375 72.71875 -52.59375 C 75.71875 -50.351562 78.125 -47.488281 79.9375 -44 C 81.75 -40.507812 82.65625 -36.160156 82.65625 -30.953125 C 82.65625 -25.210938 81.535156 -20.28125 79.296875 -16.15625 C 77.054688 -12.039062 74.070312 -8.628906 70.34375 -5.921875 C 66.625 -3.222656 62.488281 -1.234375 57.9375 0.046875 C 53.394531 1.335938 48.78125 1.984375 44.09375 1.984375 Z M 44.09375 1.984375 "/></g><g transform="translate(571.553459, 377.709611)"><path style="stroke:none" d="M 13.75 -117.46875 L 13.75 -139.71875 L 38.859375 -139.71875 L 38.859375 -117.46875 Z M 14.34375 0 L 14.34375 -98.78125 L 38.265625 -98.78125 L 38.265625 0 Z M 14.34375 0 "/></g></g><g style="fill:#3ab6fb;fill-opacity:1;"><g transform="translate(624.154048, 377.709611)"><path style="stroke:none" d="M 20.078125 0 L 20.078125 -78.609375 L 1.984375 -78.609375 L 1.984375 -98.78125 L 20.265625 -98.78125 L 20.265625 -112.03125 C 20.265625 -116.84375 21.117188 -121.09375 22.828125 -124.78125 C 24.546875 -128.46875 26.875 -131.582031 29.8125 -134.125 C 32.75 -136.664062 36.109375 -138.578125 39.890625 -139.859375 C 43.679688 -141.148438 47.65625 -141.796875 51.8125 -141.796875 C 55.101562 -141.796875 58.25 -141.414062 61.25 -140.65625 C 64.25 -139.894531 67.066406 -138.921875 69.703125 -137.734375 L 61.796875 -117.859375 C 60.679688 -118.585938 59.445312 -119.179688 58.09375 -119.640625 C 56.738281 -120.097656 55.398438 -120.328125 54.078125 -120.328125 C 51.640625 -120.328125 49.515625 -119.503906 47.703125 -117.859375 C 45.890625 -116.210938 44.984375 -113.445312 44.984375 -109.5625 L 44.984375 -98.78125 L 68.03125 -98.78125 L 68.03125 -78.609375 L 44.984375 -78.609375 L 44.984375 0 Z M 20.078125 0 "/></g></g><g style="fill:#000000;fill-opacity:1;"><g transform="translate(55.386469, 553.209602)"><path style="stroke:none" d="M 75.734375 1.984375 C 66.578125 1.984375 58.351562 0.734375 51.0625 -1.765625 C 43.78125 -4.273438 37.453125 -7.769531 32.078125 -12.25 C 26.710938 -16.738281 22.25 -22 18.6875 -28.03125 C 15.125 -34.0625 12.46875 -40.632812 10.71875 -47.75 C 8.976562 -54.875 8.109375 -62.257812 8.109375 -69.90625 C 8.109375 -77.550781 8.976562 -84.929688 10.71875 -92.046875 C 12.46875 -99.171875 15.101562 -105.75 18.625 -111.78125 C 22.15625 -117.8125 26.59375 -123.097656 31.9375 -127.640625 C 37.28125 -132.191406 43.59375 -135.71875 50.875 -138.21875 C 58.15625 -140.726562 66.378906 -141.984375 75.546875 -141.984375 C 84.773438 -141.984375 93.3125 -140.453125 101.15625 -137.390625 C 109 -134.328125 115.9375 -129.8125 121.96875 -123.84375 C 128 -117.875 132.890625 -110.539062 136.640625 -101.84375 L 113.21875 -92.546875 C 111.5 -98.679688 108.8125 -103.609375 105.15625 -107.328125 C 101.5 -111.054688 97.128906 -113.773438 92.046875 -115.484375 C 86.972656 -117.203125 81.40625 -118.0625 75.34375 -118.0625 C 67.957031 -118.0625 61.59375 -116.84375 56.25 -114.40625 C 50.914062 -111.96875 46.535156 -108.570312 43.109375 -104.21875 C 39.679688 -99.863281 37.144531 -94.832031 35.5 -89.125 C 33.851562 -83.425781 33.03125 -77.347656 33.03125 -70.890625 C 33.03125 -63.972656 33.851562 -57.53125 35.5 -51.5625 C 37.144531 -45.59375 39.695312 -40.382812 43.15625 -35.9375 C 46.613281 -31.488281 51.03125 -28.03125 56.40625 -25.5625 C 61.78125 -23.09375 68.222656 -21.859375 75.734375 -21.859375 C 84.765625 -21.859375 92.394531 -23.832031 98.625 -27.78125 C 104.851562 -31.738281 109.847656 -38.394531 113.609375 -47.75 L 136.84375 -38.265625 C 133.15625 -29.566406 128.296875 -22.234375 122.265625 -16.265625 C 116.234375 -10.296875 109.296875 -5.757812 101.453125 -2.65625 C 93.609375 0.4375 85.035156 1.984375 75.734375 1.984375 Z M 75.734375 1.984375 "/></g><g transform="translate(196.973009, 553.209602)"><path style="stroke:none" d="M 14.34375 0 L 14.34375 -98.78125 L 37.875 -98.78125 L 37.875 -82.171875 C 39.320312 -86.191406 41.410156 -89.582031 44.140625 -92.34375 C 46.878906 -95.113281 50.007812 -97.222656 53.53125 -98.671875 C 57.0625 -100.128906 60.675781 -100.859375 64.375 -100.859375 C 67.664062 -100.859375 70.910156 -100.28125 74.109375 -99.125 C 77.304688 -97.96875 80.09375 -96.171875 82.46875 -93.734375 L 71.484375 -73.953125 C 68.128906 -76.203125 64.535156 -77.328125 60.703125 -77.328125 C 57.867188 -77.328125 55.082031 -76.648438 52.34375 -75.296875 C 49.613281 -73.941406 47.144531 -71.832031 44.9375 -68.96875 C 42.726562 -66.101562 40.960938 -62.410156 39.640625 -57.890625 C 38.328125 -53.378906 37.671875 -47.988281 37.671875 -41.71875 L 37.671875 0 Z M 14.34375 0 "/></g><g transform="translate(277.554734, 553.209602)"><path style="stroke:none" d="M 55.46875 1.984375 C 46.96875 1.984375 39.582031 0.597656 33.3125 -2.171875 C 27.050781 -4.941406 21.84375 -8.734375 17.6875 -13.546875 C 13.539062 -18.359375 10.460938 -23.8125 8.453125 -29.90625 C 6.441406 -36.007812 5.4375 -42.390625 5.4375 -49.046875 C 5.4375 -55.503906 6.390625 -61.796875 8.296875 -67.921875 C 10.210938 -74.054688 13.144531 -79.609375 17.09375 -84.578125 C 21.050781 -89.554688 26.078125 -93.515625 32.171875 -96.453125 C 38.273438 -99.390625 45.515625 -100.859375 53.890625 -100.859375 C 60.804688 -100.859375 66.816406 -99.851562 71.921875 -97.84375 C 77.035156 -95.832031 81.375 -93.113281 84.9375 -89.6875 C 88.5 -86.257812 91.363281 -82.382812 93.53125 -78.0625 C 95.707031 -73.75 97.273438 -69.265625 98.234375 -64.609375 C 99.191406 -59.960938 99.671875 -55.429688 99.671875 -51.015625 C 99.671875 -48.972656 99.585938 -47.0625 99.421875 -45.28125 C 99.253906 -43.5 99.039062 -42.25 98.78125 -41.53125 L 30.953125 -41.53125 C 31.671875 -37.238281 32.96875 -33.460938 34.84375 -30.203125 C 36.726562 -26.941406 39.382812 -24.40625 42.8125 -22.59375 C 46.238281 -20.78125 50.523438 -19.875 55.671875 -19.875 C 60.148438 -19.875 64.363281 -20.664062 68.3125 -22.25 C 72.269531 -23.832031 75.960938 -26.535156 79.390625 -30.359375 L 96.015625 -15.828125 C 90.609375 -9.828125 84.570312 -5.359375 77.90625 -2.421875 C 71.25 0.515625 63.769531 1.984375 55.46875 1.984375 Z M 30.953125 -58.9375 L 75.9375 -58.9375 C 75.144531 -65.988281 72.800781 -71.359375 68.90625 -75.046875 C 65.019531 -78.734375 59.945312 -80.578125 53.6875 -80.578125 C 48.945312 -80.578125 45.039062 -79.640625 41.96875 -77.765625 C 38.90625 -75.890625 36.5 -73.316406 34.75 -70.046875 C 33.007812 -66.785156 31.742188 -63.082031 30.953125 -58.9375 Z M 30.953125 -58.9375 "/></g><g transform="translate(383.052526, 553.209602)"><path style="stroke:none" d="M 41.328125 1.984375 C 34.609375 1.984375 28.53125 0.734375 23.09375 -1.765625 C 17.65625 -4.273438 13.351562 -7.953125 10.1875 -12.796875 C 7.019531 -17.648438 5.4375 -23.503906 5.4375 -30.359375 C 5.4375 -35.691406 6.441406 -40.1875 8.453125 -43.84375 C 10.460938 -47.507812 13.25 -50.445312 16.8125 -52.65625 C 20.375 -54.863281 24.539062 -56.460938 29.3125 -57.453125 C 34.09375 -58.441406 39.253906 -58.9375 44.796875 -58.9375 L 70.5 -58.9375 C 70.5 -65.195312 68.847656 -70.238281 65.546875 -74.0625 C 62.253906 -77.882812 57.410156 -79.796875 51.015625 -79.796875 C 47.265625 -79.796875 43.890625 -79.132812 40.890625 -77.8125 C 37.890625 -76.5 35.316406 -74.785156 33.171875 -72.671875 C 31.023438 -70.566406 29.226562 -68.296875 27.78125 -65.859375 L 9.296875 -79.203125 C 12.460938 -83.546875 16.019531 -87.332031 19.96875 -90.5625 C 23.925781 -93.800781 28.441406 -96.328125 33.515625 -98.140625 C 38.597656 -99.953125 44.367188 -100.859375 50.828125 -100.859375 C 59.785156 -100.859375 67.445312 -99.125 73.8125 -95.65625 C 80.175781 -92.195312 85.050781 -87.382812 88.4375 -81.21875 C 91.832031 -75.0625 93.53125 -67.960938 93.53125 -59.921875 L 93.53125 0 L 73.65625 0 L 72.078125 -14.140625 C 67.859375 -7.941406 63.144531 -3.703125 57.9375 -1.421875 C 52.726562 0.847656 47.191406 1.984375 41.328125 1.984375 Z M 44.796875 -18.390625 C 48.222656 -18.390625 51.46875 -19 54.53125 -20.21875 C 57.59375 -21.4375 60.296875 -23.132812 62.640625 -25.3125 C 64.984375 -27.488281 66.863281 -29.957031 68.28125 -32.71875 C 69.695312 -35.488281 70.4375 -38.425781 70.5 -41.53125 L 46.171875 -41.53125 C 40.703125 -41.53125 36.664062 -40.3125 34.0625 -37.875 C 31.457031 -35.4375 30.15625 -32.664062 30.15625 -29.5625 C 30.15625 -26.332031 31.421875 -23.660156 33.953125 -21.546875 C 36.492188 -19.441406 40.109375 -18.390625 44.796875 -18.390625 Z M 44.796875 -18.390625 "/></g><g transform="translate(487.957079, 553.209602)"><path style="stroke:none" d="M 49.4375 1.984375 C 42.976562 1.984375 37.425781 0.796875 32.78125 -1.578125 C 28.132812 -3.953125 24.570312 -7.332031 22.09375 -11.71875 C 19.625 -16.101562 18.390625 -21.296875 18.390625 -27.296875 L 18.390625 -78.609375 L 2.46875 -78.609375 L 2.46875 -98.78125 L 18.78125 -98.78125 L 18.78125 -123.296875 L 42.3125 -140.5 L 42.3125 -98.78125 L 67.234375 -98.78125 L 67.234375 -78.609375 L 42.3125 -78.609375 L 42.3125 -31.546875 C 42.3125 -26.796875 43.382812 -23.5625 45.53125 -21.84375 C 47.675781 -20.132812 50.332031 -19.28125 53.5 -19.28125 C 56 -19.28125 58.5 -19.675781 61 -20.46875 C 63.507812 -21.257812 65.585938 -22.050781 67.234375 -22.84375 L 67.234375 -0.984375 C 65.390625 -0.328125 62.816406 0.328125 59.515625 0.984375 C 56.222656 1.648438 52.863281 1.984375 49.4375 1.984375 Z M 49.4375 1.984375 "/></g></g><g style="fill:#000000;fill-opacity:1;"><g transform="translate(562.507523, 553.209602)"><path style="stroke:none" d="M 55.671875 1.984375 C 48.023438 1.984375 41.101562 0.613281 34.90625 -2.125 C 28.707031 -4.863281 23.382812 -8.601562 18.9375 -13.34375 C 14.488281 -18.09375 11.0625 -23.582031 8.65625 -29.8125 C 6.25 -36.039062 5.046875 -42.648438 5.046875 -49.640625 C 5.046875 -56.628906 6.25 -63.203125 8.65625 -69.359375 C 11.0625 -75.523438 14.488281 -80.960938 18.9375 -85.671875 C 23.382812 -90.390625 28.707031 -94.097656 34.90625 -96.796875 C 41.101562 -99.503906 48.023438 -100.859375 55.671875 -100.859375 C 63.316406 -100.859375 70.234375 -99.503906 76.421875 -96.796875 C 82.617188 -94.097656 87.941406 -90.390625 92.390625 -85.671875 C 96.847656 -80.960938 100.28125 -75.523438 102.6875 -69.359375 C 105.09375 -63.203125 106.296875 -56.628906 106.296875 -49.640625 C 106.296875 -42.648438 105.09375 -36.039062 102.6875 -29.8125 C 100.28125 -23.582031 96.847656 -18.09375 92.390625 -13.34375 C 87.941406 -8.601562 82.617188 -4.863281 76.421875 -2.125 C 70.234375 0.613281 63.316406 1.984375 55.671875 1.984375 Z M 55.671875 -18.78125 C 60.210938 -18.78125 64.113281 -19.617188 67.375 -21.296875 C 70.644531 -22.984375 73.285156 -25.257812 75.296875 -28.125 C 77.304688 -31 78.785156 -34.296875 79.734375 -38.015625 C 80.691406 -41.742188 81.171875 -45.617188 81.171875 -49.640625 C 81.171875 -53.722656 80.691406 -57.578125 79.734375 -61.203125 C 78.785156 -64.828125 77.304688 -68.054688 75.296875 -70.890625 C 73.285156 -73.722656 70.644531 -75.945312 67.375 -77.5625 C 64.113281 -79.175781 60.210938 -79.984375 55.671875 -79.984375 C 49.609375 -79.984375 44.695312 -78.582031 40.9375 -75.78125 C 37.175781 -72.988281 34.4375 -69.285156 32.71875 -64.671875 C 31.007812 -60.054688 30.15625 -55.046875 30.15625 -49.640625 C 30.15625 -45.617188 30.632812 -41.742188 31.59375 -38.015625 C 32.550781 -34.296875 34.050781 -31 36.09375 -28.125 C 38.132812 -25.257812 40.769531 -22.984375 44 -21.296875 C 47.226562 -19.617188 51.117188 -18.78125 55.671875 -18.78125 Z M 55.671875 -18.78125 "/></g></g><g style="fill:#000000;fill-opacity:1;"><g transform="translate(674.036601, 553.209602)"><path style="stroke:none" d="M 14.34375 0 L 14.34375 -98.78125 L 37.875 -98.78125 L 37.875 -82.171875 C 39.320312 -86.191406 41.410156 -89.582031 44.140625 -92.34375 C 46.878906 -95.113281 50.007812 -97.222656 53.53125 -98.671875 C 57.0625 -100.128906 60.675781 -100.859375 64.375 -100.859375 C 67.664062 -100.859375 70.910156 -100.28125 74.109375 -99.125 C 77.304688 -97.96875 80.09375 -96.171875 82.46875 -93.734375 L 71.484375 -73.953125 C 68.128906 -76.203125 64.535156 -77.328125 60.703125 -77.328125 C 57.867188 -77.328125 55.082031 -76.648438 52.34375 -75.296875 C 49.613281 -73.941406 47.144531 -71.832031 44.9375 -68.96875 C 42.726562 -66.101562 40.960938 -62.410156 39.640625 -57.890625 C 38.328125 -53.378906 37.671875 -47.988281 37.671875 -41.71875 L 37.671875 0 Z M 14.34375 0 "/></g></g></g></svg>