<svg xmlns="http://www.w3.org/2000/svg" xmlns:xlink="http://www.w3.org/1999/xlink" width="1080" zoomAndPan="magnify" viewBox="0 0 810 809.999993" height="1080" preserveAspectRatio="xMidYMid meet" version="1.2"><defs/><g id="787f19479e"><g style="fill:#3ab6fb;fill-opacity:1;"><g transform="translate(133.854145, 378.529717)"><path style="stroke:none" d="M 16.984375 0 L 16.984375 -131.90625 L 48.921875 -131.90625 L 83.921875 -38.09375 L 118.9375 -131.90625 L 150.859375 -131.90625 L 150.859375 0 L 128.078125 0 L 128.078125 -98.671875 L 95.40625 -11.484375 L 72.4375 -11.484375 L 39.765625 -98.671875 L 39.765625 0 Z M 16.984375 0 "/></g></g><g style="fill:#3ab6fb;fill-opacity:1;"><g transform="translate(301.696457, 378.529717)"><path style="stroke:none" d="M 52.375 1.859375 C 44.34375 1.859375 37.367188 0.554688 31.453125 -2.046875 C 25.546875 -4.660156 20.628906 -8.238281 16.703125 -12.78125 C 12.785156 -17.332031 9.878906 -22.484375 7.984375 -28.234375 C 6.085938 -33.992188 5.140625 -40.015625 5.140625 -46.296875 C 5.140625 -52.398438 6.039062 -58.34375 7.84375 -64.125 C 9.644531 -69.914062 12.410156 -75.160156 16.140625 -79.859375 C 19.878906 -84.554688 24.625 -88.289062 30.375 -91.0625 C 36.132812 -93.832031 42.96875 -95.21875 50.875 -95.21875 C 57.40625 -95.21875 63.082031 -94.269531 67.90625 -92.375 C 72.738281 -90.476562 76.832031 -87.910156 80.1875 -84.671875 C 83.550781 -81.429688 86.257812 -77.773438 88.3125 -73.703125 C 90.363281 -69.628906 91.835938 -65.394531 92.734375 -61 C 93.640625 -56.613281 94.09375 -52.335938 94.09375 -48.171875 C 94.09375 -46.242188 94.015625 -44.4375 93.859375 -42.75 C 93.710938 -41.070312 93.515625 -39.890625 93.265625 -39.203125 L 29.21875 -39.203125 C 29.90625 -35.160156 31.132812 -31.597656 32.90625 -28.515625 C 34.675781 -25.441406 37.179688 -23.046875 40.421875 -21.328125 C 43.660156 -19.617188 47.707031 -18.765625 52.5625 -18.765625 C 56.789062 -18.765625 60.769531 -19.507812 64.5 -21 C 68.238281 -22.5 71.726562 -25.050781 74.96875 -28.65625 L 90.640625 -14.9375 C 85.535156 -9.269531 79.84375 -5.050781 73.5625 -2.28125 C 67.28125 0.476562 60.21875 1.859375 52.375 1.859375 Z M 29.21875 -55.640625 L 71.703125 -55.640625 C 70.953125 -62.296875 68.738281 -67.363281 65.0625 -70.84375 C 61.394531 -74.332031 56.601562 -76.078125 50.6875 -76.078125 C 46.207031 -76.078125 42.519531 -75.191406 39.625 -73.421875 C 36.726562 -71.648438 34.457031 -69.222656 32.8125 -66.140625 C 31.164062 -63.054688 29.96875 -59.554688 29.21875 -55.640625 Z M 29.21875 -55.640625 "/></g></g><g style="fill:#3ab6fb;fill-opacity:1;"><g transform="translate(401.300311, 378.529717)"><path style="stroke:none" d="M 13.53125 0 L 13.53125 -93.265625 L 35.75 -93.265625 L 35.75 -77.578125 C 37.125 -81.367188 39.101562 -84.570312 41.6875 -87.1875 C 44.269531 -89.800781 47.222656 -91.789062 50.546875 -93.15625 C 53.878906 -94.53125 57.285156 -95.21875 60.765625 -95.21875 C 63.878906 -95.21875 66.945312 -94.671875 69.96875 -93.578125 C 72.988281 -92.492188 75.617188 -90.800781 77.859375 -88.5 L 67.5 -69.828125 C 64.320312 -71.941406 60.925781 -73 57.3125 -73 C 54.644531 -73 52.019531 -72.359375 49.4375 -71.078125 C 46.851562 -69.804688 44.515625 -67.816406 42.421875 -65.109375 C 40.335938 -62.398438 38.671875 -58.914062 37.421875 -54.65625 C 36.179688 -50.394531 35.5625 -45.304688 35.5625 -39.390625 L 35.5625 0 Z M 13.53125 0 "/></g></g><g style="fill:#3ab6fb;fill-opacity:1;"><g transform="translate(477.380125, 378.529717)"><path style="stroke:none" d="M 41.640625 1.859375 C 35.097656 1.859375 29.148438 0.675781 23.796875 -1.6875 C 18.453125 -4.050781 13.957031 -7.207031 10.3125 -11.15625 C 6.675781 -15.101562 4.078125 -19.472656 2.515625 -24.265625 L 20.625 -32.296875 C 21.5 -30.054688 22.679688 -27.753906 24.171875 -25.390625 C 25.671875 -23.023438 27.742188 -21.03125 30.390625 -19.40625 C 33.035156 -17.789062 36.410156 -16.984375 40.515625 -16.984375 C 44.066406 -16.984375 46.945312 -17.554688 49.15625 -18.703125 C 51.363281 -19.859375 52.992188 -21.304688 54.046875 -23.046875 C 55.109375 -24.796875 55.640625 -26.476562 55.640625 -28.09375 C 55.640625 -30.332031 54.796875 -32.117188 53.109375 -33.453125 C 51.429688 -34.796875 49.191406 -35.90625 46.390625 -36.78125 C 43.597656 -37.65625 40.535156 -38.492188 37.203125 -39.296875 C 33.867188 -40.109375 30.535156 -41.101562 27.203125 -42.28125 C 23.878906 -43.46875 20.816406 -45.023438 18.015625 -46.953125 C 15.210938 -48.878906 12.972656 -51.382812 11.296875 -54.46875 C 9.617188 -57.550781 8.78125 -61.457031 8.78125 -66.1875 C 8.78125 -71.101562 9.726562 -75.378906 11.625 -79.015625 C 13.519531 -82.660156 16.082031 -85.679688 19.3125 -88.078125 C 22.550781 -90.472656 26.253906 -92.257812 30.421875 -93.4375 C 34.597656 -94.625 38.925781 -95.21875 43.40625 -95.21875 C 51.4375 -95.21875 58.453125 -93.410156 64.453125 -89.796875 C 70.460938 -86.191406 75.242188 -81.25 78.796875 -74.96875 L 61.140625 -65.34375 C 60.085938 -67.269531 58.765625 -69.132812 57.171875 -70.9375 C 55.585938 -72.75 53.613281 -74.242188 51.25 -75.421875 C 48.882812 -76.609375 46.019531 -77.203125 42.65625 -77.203125 C 38.925781 -77.203125 35.988281 -76.40625 33.84375 -74.8125 C 31.695312 -73.226562 30.625 -71.347656 30.625 -69.171875 C 30.625 -67.179688 31.476562 -65.5625 33.1875 -64.3125 C 34.894531 -63.070312 37.164062 -62 40 -61.09375 C 42.832031 -60.195312 45.925781 -59.28125 49.28125 -58.34375 C 52.644531 -57.414062 56.003906 -56.265625 59.359375 -54.890625 C 62.722656 -53.523438 65.820312 -51.78125 68.65625 -49.65625 C 71.488281 -47.539062 73.757812 -44.832031 75.46875 -41.53125 C 77.1875 -38.238281 78.046875 -34.132812 78.046875 -29.21875 C 78.046875 -23.800781 76.988281 -19.144531 74.875 -15.25 C 72.757812 -11.363281 69.941406 -8.144531 66.421875 -5.59375 C 62.898438 -3.050781 58.992188 -1.175781 54.703125 0.03125 C 50.410156 1.25 46.054688 1.859375 41.640625 1.859375 Z M 41.640625 1.859375 "/></g></g><g style="fill:#3ab6fb;fill-opacity:1;"><g transform="translate(562.234765, 378.529717)"><path style="stroke:none" d="M 12.96875 -110.90625 L 12.96875 -131.90625 L 36.6875 -131.90625 L 36.6875 -110.90625 Z M 13.53125 0 L 13.53125 -93.265625 L 36.125 -93.265625 L 36.125 0 Z M 13.53125 0 "/></g></g><g style="fill:#3ab6fb;fill-opacity:1;"><g transform="translate(611.896674, 378.529717)"><path style="stroke:none" d="M 18.953125 0 L 18.953125 -74.21875 L 1.859375 -74.21875 L 1.859375 -93.265625 L 19.140625 -93.265625 L 19.140625 -105.765625 C 19.140625 -110.304688 19.945312 -114.320312 21.5625 -117.8125 C 23.175781 -121.300781 25.367188 -124.242188 28.140625 -126.640625 C 30.910156 -129.035156 34.082031 -130.835938 37.65625 -132.046875 C 41.238281 -133.265625 44.992188 -133.875 48.921875 -133.875 C 52.023438 -133.875 54.992188 -133.515625 57.828125 -132.796875 C 60.660156 -132.078125 63.320312 -131.160156 65.8125 -130.046875 L 58.34375 -111.28125 C 57.289062 -111.957031 56.125 -112.515625 54.84375 -112.953125 C 53.570312 -113.390625 52.3125 -113.609375 51.0625 -113.609375 C 48.757812 -113.609375 46.75 -112.828125 45.03125 -111.265625 C 43.320312 -109.710938 42.46875 -107.101562 42.46875 -103.4375 L 42.46875 -93.265625 L 64.234375 -93.265625 L 64.234375 -74.21875 L 42.46875 -74.21875 L 42.46875 0 Z M 18.953125 0 "/></g></g><g style="fill:#ffffff;fill-opacity:1;"><g transform="translate(74.908836, 544.279709)"><path style="stroke:none" d="M 71.515625 1.859375 C 62.859375 1.859375 55.09375 0.675781 48.21875 -1.6875 C 41.34375 -4.050781 35.367188 -7.347656 30.296875 -11.578125 C 25.222656 -15.804688 21.003906 -20.765625 17.640625 -26.453125 C 14.285156 -32.148438 11.78125 -38.359375 10.125 -45.078125 C 8.476562 -51.804688 7.65625 -58.78125 7.65625 -66 C 7.65625 -73.21875 8.476562 -80.1875 10.125 -86.90625 C 11.78125 -93.632812 14.269531 -99.84375 17.59375 -105.53125 C 20.925781 -111.226562 25.113281 -116.222656 30.15625 -120.515625 C 35.195312 -124.804688 41.15625 -128.132812 48.03125 -130.5 C 54.90625 -132.875 62.671875 -134.0625 71.328125 -134.0625 C 80.035156 -134.0625 88.09375 -132.613281 95.5 -129.71875 C 102.90625 -126.820312 109.453125 -122.554688 115.140625 -116.921875 C 120.835938 -111.285156 125.460938 -104.363281 129.015625 -96.15625 L 106.890625 -87.375 C 105.273438 -93.164062 102.738281 -97.816406 99.28125 -101.328125 C 95.820312 -104.847656 91.695312 -107.414062 86.90625 -109.03125 C 82.113281 -110.65625 76.859375 -111.46875 71.140625 -111.46875 C 64.160156 -111.46875 58.148438 -110.316406 53.109375 -108.015625 C 48.078125 -105.710938 43.941406 -102.503906 40.703125 -98.390625 C 37.460938 -94.285156 35.066406 -89.539062 33.515625 -84.15625 C 31.960938 -78.769531 31.1875 -73.03125 31.1875 -66.9375 C 31.1875 -60.394531 31.960938 -54.304688 33.515625 -48.671875 C 35.066406 -43.046875 37.476562 -38.128906 40.75 -33.921875 C 44.019531 -29.722656 48.1875 -26.457031 53.25 -24.125 C 58.320312 -21.789062 64.410156 -20.625 71.515625 -20.625 C 80.035156 -20.625 87.234375 -22.488281 93.109375 -26.21875 C 98.992188 -29.957031 103.710938 -36.25 107.265625 -45.09375 L 129.203125 -36.125 C 125.710938 -27.914062 121.117188 -20.992188 115.421875 -15.359375 C 109.734375 -9.722656 103.1875 -5.441406 95.78125 -2.515625 C 88.375 0.398438 80.285156 1.859375 71.515625 1.859375 Z M 71.515625 1.859375 "/></g></g><g style="fill:#ffffff;fill-opacity:1;"><g transform="translate(208.585252, 544.279709)"><path style="stroke:none" d="M 13.53125 0 L 13.53125 -93.265625 L 35.75 -93.265625 L 35.75 -77.578125 C 37.125 -81.367188 39.101562 -84.570312 41.6875 -87.1875 C 44.269531 -89.800781 47.222656 -91.789062 50.546875 -93.15625 C 53.878906 -94.53125 57.285156 -95.21875 60.765625 -95.21875 C 63.878906 -95.21875 66.945312 -94.671875 69.96875 -93.578125 C 72.988281 -92.492188 75.617188 -90.800781 77.859375 -88.5 L 67.5 -69.828125 C 64.320312 -71.941406 60.925781 -73 57.3125 -73 C 54.644531 -73 52.019531 -72.359375 49.4375 -71.078125 C 46.851562 -69.804688 44.515625 -67.816406 42.421875 -65.109375 C 40.335938 -62.398438 38.671875 -58.914062 37.421875 -54.65625 C 36.179688 -50.394531 35.5625 -45.304688 35.5625 -39.390625 L 35.5625 0 Z M 13.53125 0 "/></g></g><g style="fill:#ffffff;fill-opacity:1;"><g transform="translate(284.665066, 544.279709)"><path style="stroke:none" d="M 52.375 1.859375 C 44.34375 1.859375 37.367188 0.554688 31.453125 -2.046875 C 25.546875 -4.660156 20.628906 -8.238281 16.703125 -12.78125 C 12.785156 -17.332031 9.878906 -22.484375 7.984375 -28.234375 C 6.085938 -33.992188 5.140625 -40.015625 5.140625 -46.296875 C 5.140625 -52.398438 6.039062 -58.34375 7.84375 -64.125 C 9.644531 -69.914062 12.410156 -75.160156 16.140625 -79.859375 C 19.878906 -84.554688 24.625 -88.289062 30.375 -91.0625 C 36.132812 -93.832031 42.96875 -95.21875 50.875 -95.21875 C 57.40625 -95.21875 63.082031 -94.269531 67.90625 -92.375 C 72.738281 -90.476562 76.832031 -87.910156 80.1875 -84.671875 C 83.550781 -81.429688 86.257812 -77.773438 88.3125 -73.703125 C 90.363281 -69.628906 91.835938 -65.394531 92.734375 -61 C 93.640625 -56.613281 94.09375 -52.335938 94.09375 -48.171875 C 94.09375 -46.242188 94.015625 -44.4375 93.859375 -42.75 C 93.710938 -41.070312 93.515625 -39.890625 93.265625 -39.203125 L 29.21875 -39.203125 C 29.90625 -35.160156 31.132812 -31.597656 32.90625 -28.515625 C 34.675781 -25.441406 37.179688 -23.046875 40.421875 -21.328125 C 43.660156 -19.617188 47.707031 -18.765625 52.5625 -18.765625 C 56.789062 -18.765625 60.769531 -19.507812 64.5 -21 C 68.238281 -22.5 71.726562 -25.050781 74.96875 -28.65625 L 90.640625 -14.9375 C 85.535156 -9.269531 79.84375 -5.050781 73.5625 -2.28125 C 67.28125 0.476562 60.21875 1.859375 52.375 1.859375 Z M 29.21875 -55.640625 L 71.703125 -55.640625 C 70.953125 -62.296875 68.738281 -67.363281 65.0625 -70.84375 C 61.394531 -74.332031 56.601562 -76.078125 50.6875 -76.078125 C 46.207031 -76.078125 42.519531 -75.191406 39.625 -73.421875 C 36.726562 -71.648438 34.457031 -69.222656 32.8125 -66.140625 C 31.164062 -63.054688 29.96875 -59.554688 29.21875 -55.640625 Z M 29.21875 -55.640625 "/></g></g><g style="fill:#ffffff;fill-opacity:1;"><g transform="translate(384.26892, 544.279709)"><path style="stroke:none" d="M 39.015625 1.859375 C 32.671875 1.859375 26.929688 0.675781 21.796875 -1.6875 C 16.660156 -4.050781 12.597656 -7.519531 9.609375 -12.09375 C 6.628906 -16.664062 5.140625 -22.1875 5.140625 -28.65625 C 5.140625 -33.695312 6.085938 -37.941406 7.984375 -41.390625 C 9.878906 -44.847656 12.503906 -47.617188 15.859375 -49.703125 C 19.222656 -51.796875 23.160156 -53.304688 27.671875 -54.234375 C 32.191406 -55.171875 37.0625 -55.640625 42.28125 -55.640625 L 66.5625 -55.640625 C 66.5625 -61.546875 65.003906 -66.304688 61.890625 -69.921875 C 58.773438 -73.535156 54.203125 -75.34375 48.171875 -75.34375 C 44.617188 -75.34375 41.425781 -74.71875 38.59375 -73.46875 C 35.769531 -72.226562 33.34375 -70.609375 31.3125 -68.609375 C 29.289062 -66.617188 27.597656 -64.472656 26.234375 -62.171875 L 8.78125 -74.78125 C 11.757812 -78.882812 15.113281 -82.457031 18.84375 -85.5 C 22.582031 -88.550781 26.847656 -90.929688 31.640625 -92.640625 C 36.429688 -94.359375 41.878906 -95.21875 47.984375 -95.21875 C 56.441406 -95.21875 63.675781 -93.582031 69.6875 -90.3125 C 75.695312 -87.050781 80.300781 -82.507812 83.5 -76.6875 C 86.707031 -70.875 88.3125 -64.171875 88.3125 -56.578125 L 88.3125 0 L 69.546875 0 L 68.046875 -13.34375 C 64.066406 -7.5 59.617188 -3.503906 54.703125 -1.359375 C 49.785156 0.785156 44.554688 1.859375 39.015625 1.859375 Z M 42.28125 -17.359375 C 45.519531 -17.359375 48.585938 -17.929688 51.484375 -19.078125 C 54.378906 -20.234375 56.929688 -21.835938 59.140625 -23.890625 C 61.347656 -25.953125 63.117188 -28.289062 64.453125 -30.90625 C 65.796875 -33.519531 66.5 -36.285156 66.5625 -39.203125 L 43.59375 -39.203125 C 38.425781 -39.203125 34.613281 -38.050781 32.15625 -35.75 C 29.695312 -33.445312 28.46875 -30.832031 28.46875 -27.90625 C 28.46875 -24.863281 29.664062 -22.34375 32.0625 -20.34375 C 34.457031 -18.351562 37.863281 -17.359375 42.28125 -17.359375 Z M 42.28125 -17.359375 "/></g></g><g style="fill:#ffffff;fill-opacity:1;"><g transform="translate(483.3127, 544.279709)"><path style="stroke:none" d="M 46.671875 1.859375 C 40.578125 1.859375 35.332031 0.738281 30.9375 -1.5 C 26.550781 -3.738281 23.191406 -6.925781 20.859375 -11.0625 C 18.523438 -15.195312 17.359375 -20.097656 17.359375 -25.765625 L 17.359375 -74.21875 L 2.328125 -74.21875 L 2.328125 -93.265625 L 17.734375 -93.265625 L 17.734375 -116.40625 L 39.953125 -132.65625 L 39.953125 -93.265625 L 63.484375 -93.265625 L 63.484375 -74.21875 L 39.953125 -74.21875 L 39.953125 -29.78125 C 39.953125 -25.300781 40.960938 -22.25 42.984375 -20.625 C 45.003906 -19.007812 47.507812 -18.203125 50.5 -18.203125 C 52.863281 -18.203125 55.226562 -18.570312 57.59375 -19.3125 C 59.957031 -20.0625 61.921875 -20.8125 63.484375 -21.5625 L 63.484375 -0.9375 C 61.734375 -0.3125 59.300781 0.304688 56.1875 0.921875 C 53.082031 1.546875 49.910156 1.859375 46.671875 1.859375 Z M 46.671875 1.859375 "/></g></g><g style="fill:#ffffff;fill-opacity:1;"><g transform="translate(553.698164, 544.279709)"><path style="stroke:none" d="M 52.5625 1.859375 C 45.34375 1.859375 38.804688 0.570312 32.953125 -2 C 27.097656 -4.582031 22.070312 -8.113281 17.875 -12.59375 C 13.675781 -17.082031 10.441406 -22.265625 8.171875 -28.140625 C 5.898438 -34.023438 4.765625 -40.265625 4.765625 -46.859375 C 4.765625 -53.460938 5.898438 -59.671875 8.171875 -65.484375 C 10.441406 -71.304688 13.675781 -76.441406 17.875 -80.890625 C 22.070312 -85.335938 27.097656 -88.835938 32.953125 -91.390625 C 38.804688 -93.941406 45.34375 -95.21875 52.5625 -95.21875 C 59.78125 -95.21875 66.3125 -93.941406 72.15625 -91.390625 C 78.007812 -88.835938 83.035156 -85.335938 87.234375 -80.890625 C 91.441406 -76.441406 94.679688 -71.304688 96.953125 -65.484375 C 99.222656 -59.671875 100.359375 -53.460938 100.359375 -46.859375 C 100.359375 -40.265625 99.222656 -34.023438 96.953125 -28.140625 C 94.679688 -22.265625 91.441406 -17.082031 87.234375 -12.59375 C 83.035156 -8.113281 78.007812 -4.582031 72.15625 -2 C 66.3125 0.570312 59.78125 1.859375 52.5625 1.859375 Z M 52.5625 -17.734375 C 56.851562 -17.734375 60.535156 -18.523438 63.609375 -20.109375 C 66.691406 -21.703125 69.179688 -23.851562 71.078125 -26.5625 C 72.984375 -29.269531 74.382812 -32.378906 75.28125 -35.890625 C 76.1875 -39.410156 76.640625 -43.066406 76.640625 -46.859375 C 76.640625 -50.722656 76.1875 -54.363281 75.28125 -57.78125 C 74.382812 -61.207031 72.984375 -64.257812 71.078125 -66.9375 C 69.179688 -69.613281 66.691406 -71.710938 63.609375 -73.234375 C 60.535156 -74.753906 56.851562 -75.515625 52.5625 -75.515625 C 46.832031 -75.515625 42.191406 -74.191406 38.640625 -71.546875 C 35.097656 -68.910156 32.515625 -65.410156 30.890625 -61.046875 C 29.273438 -56.691406 28.46875 -51.960938 28.46875 -46.859375 C 28.46875 -43.066406 28.921875 -39.410156 29.828125 -35.890625 C 30.734375 -32.378906 32.148438 -29.269531 34.078125 -26.5625 C 36.003906 -23.851562 38.488281 -21.703125 41.53125 -20.109375 C 44.582031 -18.523438 48.257812 -17.734375 52.5625 -17.734375 Z M 52.5625 -17.734375 "/></g></g><g style="fill:#ffffff;fill-opacity:1;"><g transform="translate(658.996346, 544.279709)"><path style="stroke:none" d="M 13.53125 0 L 13.53125 -93.265625 L 35.75 -93.265625 L 35.75 -77.578125 C 37.125 -81.367188 39.101562 -84.570312 41.6875 -87.1875 C 44.269531 -89.800781 47.222656 -91.789062 50.546875 -93.15625 C 53.878906 -94.53125 57.285156 -95.21875 60.765625 -95.21875 C 63.878906 -95.21875 66.945312 -94.671875 69.96875 -93.578125 C 72.988281 -92.492188 75.617188 -90.800781 77.859375 -88.5 L 67.5 -69.828125 C 64.320312 -71.941406 60.925781 -73 57.3125 -73 C 54.644531 -73 52.019531 -72.359375 49.4375 -71.078125 C 46.851562 -69.804688 44.515625 -67.816406 42.421875 -65.109375 C 40.335938 -62.398438 38.671875 -58.914062 37.421875 -54.65625 C 36.179688 -50.394531 35.5625 -45.304688 35.5625 -39.390625 L 35.5625 0 Z M 13.53125 0 "/></g></g></g></svg>