<svg xmlns="http://www.w3.org/2000/svg" xmlns:xlink="http://www.w3.org/1999/xlink" width="1920" zoomAndPan="magnify" viewBox="0 0 1440 809.999993" height="1080" preserveAspectRatio="xMidYMid meet" version="1.2"><defs><clipPath id="dab0cb1c21"><path d="M 391 133.328125 L 1045 133.328125 L 1045 643.042969 L 391 643.042969 Z M 391 133.328125 "/></clipPath></defs><g id="cee9e297ea"><rect x="0" width="1440" y="0" height="809.999993" style="fill:#ffffff;fill-opacity:1;stroke:none;"/><rect x="0" width="1440" y="0" height="809.999993" style="fill:#ffffff;fill-opacity:1;stroke:none;"/><g clip-rule="nonzero" clip-path="url(#dab0cb1c21)"><path style=" stroke:none;fill-rule:nonzero;fill:#000000;fill-opacity:1;" d="M 997.464844 287.320312 C 994.792969 267.488281 994.433594 233.269531 1012.882812 221.808594 C 1013.1875 221.605469 1013.445312 221.296875 1013.753906 221.039062 C 1028.8125 216.207031 1039.242188 209.425781 1031.070312 200.332031 L 808.671875 133.328125 L 448.601562 183.375 C 448.601562 183.375 407.390625 189.285156 411.039062 253.359375 C 413.042969 288.195312 423.988281 305.304688 433.546875 313.734375 L 404 322.671875 C 395.828125 331.769531 406.261719 338.5 421.316406 343.328125 C 421.625 343.585938 421.832031 343.894531 422.191406 344.101562 C 440.585938 355.609375 440.226562 389.777344 437.605469 409.664062 C 371.421875 428.417969 395.160156 434.585938 395.160156 434.585938 L 409.703125 438.078125 C 399.476562 447.328125 389.304688 464.796875 391.253906 497.988281 C 394.90625 562.0625 428.769531 566.484375 428.769531 566.484375 L 664.425781 643.042969 L 1020.074219 556.925781 C 1020.074219 556.925781 1043.816406 550.761719 977.628906 531.953125 C 974.957031 512.171875 974.597656 477.949219 993.046875 466.441406 C 993.40625 466.234375 993.609375 465.925781 993.917969 465.671875 C 1008.976562 460.839844 1019.40625 454.109375 1011.238281 445.015625 L 995.769531 440.339844 C 1006.097656 434.121094 1021.566406 417.886719 1023.980469 375.648438 C 1025.675781 346.667969 1018.070312 329.660156 1009.335938 319.640625 L 1039.859375 312.242188 C 1039.859375 312.242188 1063.652344 306.128906 997.464844 287.320312 Z M 699.988281 286.5 L 759.75 274.21875 L 961.90625 232.652344 L 992.019531 226.484375 C 982.355469 244.109375 982.769531 268.207031 984.359375 283.675781 C 984.722656 287.167969 985.132812 290.355469 985.492188 292.820312 L 952.554688 300.988281 L 697.46875 364.445312 Z M 443.054688 348.828125 L 473.167969 354.992188 L 667.253906 394.917969 L 684.210938 398.410156 L 735.085938 408.839844 L 737.550781 486.789062 L 475.375 421.585938 L 449.527344 415.160156 C 449.941406 412.695312 450.300781 409.507812 450.710938 406.015625 C 452.25 390.550781 452.664062 366.449219 443.054688 348.828125 Z M 431.335938 250.273438 C 430.976562 233.214844 434.007812 220.882812 440.175781 214.617188 C 444.082031 210.609375 448.707031 209.785156 451.839844 209.785156 C 453.535156 209.785156 454.71875 210.042969 454.820312 210.042969 L 609.957031 260.601562 L 687.347656 285.832031 L 684.828125 364.34375 L 467.667969 303.457031 L 456.207031 300.269531 C 455.796875 300.167969 455.179688 300.066406 454.769531 300.066406 C 453.84375 299.960938 432.417969 298.007812 431.335938 250.273438 Z M 664.992188 609.027344 L 436.375 544.953125 C 435.960938 544.800781 435.398438 544.75 434.933594 544.695312 C 434.007812 544.644531 412.53125 542.691406 411.503906 494.957031 C 411.140625 477.898438 414.175781 465.566406 420.339844 459.300781 C 424.246094 455.292969 428.820312 454.46875 432.003906 454.46875 C 433.648438 454.46875 434.882812 454.726562 434.933594 454.726562 C 434.933594 454.726562 434.984375 454.726562 434.933594 454.726562 L 667.511719 530.515625 Z M 964.527344 528.355469 C 964.886719 531.851562 965.296875 535.035156 965.65625 537.503906 L 677.632812 609.128906 L 680.101562 531.183594 L 741.714844 518.492188 L 750.808594 520.703125 L 784.878906 509.652344 L 942.019531 477.335938 L 972.132812 471.167969 C 962.523438 488.742188 962.933594 512.839844 964.527344 528.355469 Z M 980.40625 422.355469 C 979.890625 422.40625 979.324219 422.457031 978.863281 422.613281 L 957.125 428.726562 L 750.242188 486.6875 L 747.726562 408.171875 L 815.605469 386.027344 L 979.941406 332.4375 C 979.941406 332.4375 988.574219 330.535156 994.894531 336.957031 C 1001.011719 343.226562 1004.09375 355.558594 1003.734375 372.617188 C 1002.65625 420.351562 981.175781 422.304688 980.40625 422.355469 Z M 980.40625 422.355469 "/></g></g></svg>