<svg xmlns="http://www.w3.org/2000/svg" xmlns:xlink="http://www.w3.org/1999/xlink" width="1920" zoomAndPan="magnify" viewBox="0 0 1440 809.999993" height="1080" preserveAspectRatio="xMidYMid meet" version="1.2"><defs><clipPath id="9cb41f40b3"><path d="M 581 168.796875 L 667 168.796875 L 667 269 L 581 269 Z M 581 168.796875 "/></clipPath><clipPath id="1d0749c89e"><path d="M 430 630 L 875 630 L 875 681.046875 L 430 681.046875 Z M 430 630 "/></clipPath></defs><g id="c8f38a2102"><rect x="0" width="1440" y="0" height="809.999993" style="fill:#ffffff;fill-opacity:1;stroke:none;"/><rect x="0" width="1440" y="0" height="809.999993" style="fill:#ffffff;fill-opacity:1;stroke:none;"/><path style=" stroke:none;fill-rule:nonzero;fill:#29242c;fill-opacity:1;" d="M 874.023438 623.363281 L 470.839844 623.363281 L 470.839844 437.183594 L 529.433594 318.625 L 778.402344 253.253906 L 936.617188 412.308594 L 874.023438 520.40625 L 874.023438 623.363281 "/><path style=" stroke:none;fill-rule:nonzero;fill:#29242c;fill-opacity:1;" d="M 800.425781 175.410156 L 520.839844 254.1875 L 505.851562 313.410156 L 785.449219 234.628906 L 993.867188 437.183594 L 1008.847656 377.953125 L 800.425781 175.410156 "/><path style=" stroke:none;fill-rule:nonzero;fill:#ffffff;fill-opacity:1;" d="M 700.382812 454.410156 L 748.683594 475.109375 L 774.175781 415.480469 L 725.875 394.785156 L 700.382812 454.410156 "/><path style=" stroke:none;fill-rule:nonzero;fill:#ffffff;fill-opacity:1;" d="M 680.246094 445.785156 L 705.746094 386.15625 L 657.417969 365.453125 L 631.925781 425.082031 L 680.246094 445.785156 "/><path style=" stroke:none;fill-rule:nonzero;fill:#ffffff;fill-opacity:1;" d="M 672.148438 464.710938 L 623.855469 444.007812 L 598.359375 503.632812 L 646.664062 524.335938 L 672.148438 464.710938 "/><path style=" stroke:none;fill-rule:nonzero;fill:#ffffff;fill-opacity:1;" d="M 692.300781 473.335938 L 666.789062 532.960938 L 715.089844 553.664062 L 740.585938 494.039062 L 692.300781 473.335938 "/><g clip-rule="nonzero" clip-path="url(#9cb41f40b3)"><path style=" stroke:none;fill-rule:nonzero;fill:#29242c;fill-opacity:1;" d="M 654.148438 233.976562 L 581.703125 268.777344 L 606.988281 168.835938 L 666.789062 184 L 654.148438 233.976562 "/></g><g clip-rule="nonzero" clip-path="url(#1d0749c89e)"><path style=" stroke:none;fill-rule:nonzero;fill:#29242c;fill-opacity:1;" d="M 430.671875 681.015625 L 874.886719 681.015625 L 874.886719 630.566406 L 430.671875 630.566406 L 430.671875 681.015625 "/></g><path style=" stroke:none;fill-rule:nonzero;fill:#ffffff;fill-opacity:1;" d="M 813.660156 279.304688 L 770.257812 311.9375 L 808.261719 330.464844 L 796.53125 361.34375 L 826.21875 332.011719 L 808.261719 311.238281 L 835.664062 297.808594 L 813.660156 279.304688 "/><path style=" stroke:none;fill-rule:nonzero;fill:#ffffff;fill-opacity:1;" d="M 607.542969 289.675781 L 621.222656 299.1875 L 598.433594 340.878906 L 606.675781 357.867188 L 587.921875 343.972656 L 604.578125 306.910156 L 568.933594 297.859375 L 607.542969 289.675781 "/><path style=" stroke:none;fill-rule:nonzero;fill:#ffffff;fill-opacity:1;" d="M 880.675781 551.296875 L 837.671875 534.308594 L 728.050781 551.296875 L 815.238281 551.296875 L 895.625 596.074219 L 880.675781 551.296875 "/><path style=" stroke:none;fill-rule:nonzero;fill:#ffffff;fill-opacity:1;" d="M 459.0625 559.011719 L 500.78125 596.074219 L 561.789062 577.546875 L 576.089844 602.25 L 576.089844 565.1875 L 505.851562 565.1875 L 465.785156 523.5 L 459.0625 559.011719 "/></g></svg>