<svg xmlns="http://www.w3.org/2000/svg" xmlns:xlink="http://www.w3.org/1999/xlink" width="1920" zoomAndPan="magnify" viewBox="0 0 1440 809.999993" height="1080" preserveAspectRatio="xMidYMid meet" version="1.2"><defs><clipPath id="f83aceeacb"><path d="M 485.214844 476 L 954.714844 476 L 954.714844 687.660156 L 485.214844 687.660156 Z M 485.214844 476 "/></clipPath></defs><g id="ea5d1aa9cf"><rect x="0" width="1440" y="0" height="809.999993" style="fill:#ffffff;fill-opacity:1;stroke:none;"/><rect x="0" width="1440" y="0" height="809.999993" style="fill:#ffffff;fill-opacity:1;stroke:none;"/><g clip-rule="nonzero" clip-path="url(#f83aceeacb)"><path style=" stroke:none;fill-rule:nonzero;fill:#000000;fill-opacity:1;" d="M 485.214844 687.707031 C 488.542969 671.570312 492.273438 655.503906 495.113281 639.28125 C 501.03125 605.445312 509.453125 572.28125 520.515625 539.78125 C 525.835938 524.140625 533.910156 510.289062 547.363281 500.128906 C 554.109375 495.035156 561.433594 491.117188 569.644531 488.84375 C 581.410156 485.585938 592.832031 481.296875 604.042969 476.480469 C 606.0625 475.613281 606.9375 476.066406 607.921875 477.882812 C 634.558594 527.132812 670.484375 568.917969 711.488281 606.605469 C 713.820312 608.746094 716.234375 610.804688 718.476562 613.042969 C 719.710938 614.277344 720.523438 614.335938 721.875 613.128906 C 746 591.523438 768.539062 568.421875 788.761719 543.074219 C 805.175781 522.503906 820.257812 501.042969 833.03125 478.007812 C 833.945312 476.359375 834.777344 476.03125 836.519531 476.746094 C 849.101562 481.910156 862.117188 485.839844 874.953125 490.277344 C 892.855469 496.46875 905.605469 509.003906 914.175781 525.742188 C 920.578125 538.253906 923.878906 551.890625 927.890625 565.261719 C 936.742188 594.757812 942.164062 625.011719 948.019531 655.171875 C 950.128906 666.042969 952.488281 676.863281 954.734375 687.707031 C 798.226562 687.707031 641.722656 687.707031 485.214844 687.707031 Z M 485.214844 687.707031 "/></g><path style=" stroke:none;fill-rule:nonzero;fill:#000000;fill-opacity:1;" d="M 715.917969 480.195312 C 711.6875 476.65625 707.375 473.742188 703.039062 470.851562 C 695.132812 465.585938 687.140625 460.429688 680.007812 454.097656 C 678.617188 452.863281 677.289062 451.546875 675.882812 450.332031 C 671.089844 446.1875 669.015625 441.203125 669.023438 434.640625 C 669.03125 423.664062 668.019531 412.6875 667.460938 401.707031 C 667.386719 400.257812 666.863281 398.988281 666.21875 397.746094 C 662.460938 390.539062 659.214844 383.128906 657.296875 375.203125 C 656.867188 373.433594 656.140625 373.53125 654.828125 374.265625 C 652.074219 375.8125 649.484375 375.277344 647 373.488281 C 636.722656 366.089844 629.300781 346.335938 632.058594 333.914062 C 633.125 329.121094 635.542969 325.710938 640.558594 324.699219 C 641.992188 324.410156 642.070312 323.730469 641.738281 322.550781 C 639.738281 315.445312 640.660156 308.511719 643.15625 301.722656 C 643.667969 300.328125 643.589844 299.371094 642.476562 298.273438 C 641.09375 296.90625 639.925781 295.3125 638.742188 293.753906 C 636.515625 290.820312 635.550781 287.601562 636.003906 283.820312 C 636.960938 275.855469 637.941406 267.902344 640.351562 260.226562 C 640.980469 258.21875 640.441406 257.398438 638.628906 256.714844 C 628.871094 253.035156 619.140625 249.292969 609.417969 245.53125 C 608.042969 245 607.632812 245.304688 607.640625 246.773438 C 607.699219 258.796875 607.71875 270.820312 607.695312 282.839844 C 607.691406 284.0625 608.238281 284.59375 609.191406 285.195312 C 616.800781 290 616.933594 298.828125 609.425781 303.855469 C 608.195312 304.679688 608.234375 305.617188 608.285156 306.699219 C 608.664062 315.078125 609.25 323.449219 609.4375 331.828125 C 609.820312 349.058594 608.984375 366.300781 609.929688 383.535156 C 610.414062 392.371094 611.078125 401.210938 610.941406 410.070312 C 610.921875 411.371094 610.839844 412.675781 610.699219 413.972656 C 610.628906 414.601562 610.394531 415.597656 609.699219 415.441406 C 607.335938 414.910156 605.296875 416.125 603.097656 416.363281 C 601.871094 416.496094 601.269531 415.613281 601.042969 414.5 C 600.75 413.042969 600.484375 411.585938 600.171875 409.964844 C 599.40625 411.132812 599.4375 412.34375 599.214844 413.480469 C 598.910156 415.039062 598.515625 416.347656 596.425781 416.171875 C 594.300781 415.992188 594.183594 414.558594 594.148438 413.011719 C 594.109375 411.429688 594.09375 409.84375 594.132812 408.257812 C 594.71875 383.105469 595.289062 357.953125 595.929688 332.800781 C 596.140625 324.515625 598.03125 316.347656 597.757812 308.011719 C 597.691406 306.035156 597.355469 304.714844 595.515625 303.464844 C 589.140625 299.132812 589.660156 289.511719 596.449219 285.75 C 598.214844 284.769531 598.703125 283.726562 598.679688 281.851562 C 598.535156 269.175781 598.417969 256.503906 598.46875 243.828125 C 598.480469 241.511719 597.628906 240.585938 595.582031 239.875 C 588.902344 237.554688 582.265625 235.09375 575.65625 232.582031 C 574.09375 231.988281 571.621094 231.976562 571.515625 229.867188 C 571.402344 227.644531 573.925781 227.589844 575.441406 226.96875 C 606.636719 214.222656 637.863281 201.554688 669.066406 188.828125 C 685.097656 182.289062 701.113281 175.703125 717.089844 169.027344 C 719.550781 167.996094 721.652344 168.199219 724.03125 169.175781 C 763.910156 185.546875 803.8125 201.851562 843.699219 218.1875 C 851.109375 221.222656 858.492188 224.320312 865.871094 227.429688 C 867.09375 227.945312 868.875 228.160156 868.757812 229.976562 C 868.660156 231.554688 867.035156 231.78125 865.855469 232.226562 C 844.882812 240.199219 823.90625 248.152344 802.921875 256.097656 C 799.101562 257.546875 799.0625 257.539062 800.226562 261.503906 C 802.421875 268.960938 803.410156 276.617188 804.121094 284.328125 C 804.605469 289.558594 802.0625 293.507812 798.804688 297.070312 C 797.042969 298.992188 796.640625 300.59375 797.546875 303.1875 C 799.707031 309.351562 800.253906 315.742188 798.363281 322.144531 C 797.871094 323.808594 797.796875 324.703125 800.074219 324.976562 C 804.371094 325.492188 806.769531 328.382812 807.6875 332.480469 C 808.800781 337.453125 808.894531 342.488281 807.777344 347.457031 C 805.75 356.433594 801.796875 364.480469 795.539062 371.285156 C 792.609375 374.46875 789.210938 376.289062 784.886719 373.84375 C 783.832031 373.25 783.410156 373.597656 783.136719 374.652344 C 780.882812 383.257812 777.550781 391.421875 773.238281 399.203125 C 772.722656 400.128906 772.625 401.355469 772.574219 402.453125 C 772.019531 414.738281 770.871094 427 770.945312 439.308594 C 770.964844 442.5625 769.535156 445.03125 767.585938 447.347656 C 763.417969 452.304688 758.453125 456.402344 753.214844 460.136719 C 744.949219 466.027344 736.550781 471.738281 728.214844 477.53125 C 727.078125 478.320312 725.964844 479.15625 724.816406 479.988281 C 738.5 488.148438 746.335938 500.585938 752.128906 514.582031 C 751.886719 514.765625 751.640625 514.949219 751.398438 515.132812 C 749.863281 512.84375 748.386719 510.515625 746.78125 508.277344 C 744.5 505.089844 741.882812 502.183594 739.027344 499.488281 C 737.789062 498.324219 737.113281 498.101562 736.332031 499.980469 C 733.964844 505.648438 731.433594 511.25 728.953125 516.875 C 728.539062 517.816406 728.113281 518.71875 728.542969 519.804688 C 732.269531 529.179688 734.867188 538.882812 736.722656 548.714844 C 737.464844 548.855469 737.710938 548.445312 737.953125 548.0625 C 752.609375 525.066406 765.625 501.238281 774.515625 475.347656 C 776.265625 470.238281 777.722656 465.042969 778.691406 459.707031 C 779.640625 454.480469 779.296875 449.503906 776.34375 444.648438 C 778.21875 444.453125 779.5 445.398438 780.816406 446.09375 C 785.113281 448.367188 788.941406 451.359375 792.902344 454.140625 C 800.398438 459.402344 808.332031 463.894531 816.6875 467.601562 C 818.765625 468.523438 818.65625 469.210938 817.617188 470.960938 C 792.222656 513.820312 760.785156 551.835938 725.207031 586.539062 C 723.625 588.078125 722.261719 590.945312 720.332031 590.742188 C 718.539062 590.550781 716.953125 588.078125 715.347656 586.53125 C 680.40625 552.890625 649.769531 515.792969 625.027344 473.957031 C 621.972656 468.792969 621.945312 468.789062 627.179688 466.242188 C 636.253906 461.828125 644.695312 456.382812 652.894531 450.527344 C 656.261719 448.125 659.625 445.648438 664.25 444.261719 C 659.933594 451.4375 660.980469 458.46875 662.796875 465.492188 C 667.039062 481.90625 673.703125 497.367188 681.53125 512.34375 C 687.617188 523.988281 694.203125 535.351562 701.265625 546.433594 C 701.757812 547.210938 702.296875 547.960938 702.8125 548.71875 C 703.832031 548.335938 703.644531 547.480469 703.777344 546.824219 C 705.558594 537.941406 708.125 529.289062 711.523438 520.898438 C 712.25 519.105469 712.203125 517.585938 711.386719 515.847656 C 708.980469 510.703125 706.628906 505.527344 704.4375 500.289062 C 703.542969 498.140625 702.769531 498.367188 701.34375 499.746094 C 697.304688 503.65625 693.710938 507.90625 690.773438 512.707031 C 690.308594 513.464844 689.792969 514.199219 689.121094 515.214844 C 689.191406 505.835938 704.03125 486.539062 715.917969 480.195312 Z M 715.917969 480.195312 "/></g></svg>