<svg xmlns="http://www.w3.org/2000/svg" xmlns:xlink="http://www.w3.org/1999/xlink" width="1920" zoomAndPan="magnify" viewBox="0 0 1440 809.999993" height="1080" preserveAspectRatio="xMidYMid meet" version="1.2"><defs><clipPath id="b4bbd68e68"><path d="M 611 160 L 829 160 L 829 609.476562 L 611 609.476562 Z M 611 160 "/></clipPath><clipPath id="48ee1f3109"><path d="M 765 296 L 1007.625 296 L 1007.625 609.476562 L 765 609.476562 Z M 765 296 "/></clipPath><clipPath id="1b2e3f1a5e"><path d="M 432.375 296 L 672 296 L 672 609.476562 L 432.375 609.476562 Z M 432.375 296 "/></clipPath></defs><g id="54de75e69d"><rect x="0" width="1440" y="0" height="809.999993" style="fill:#ffffff;fill-opacity:1;stroke:none;"/><rect x="0" width="1440" y="0" height="809.999993" style="fill:#ffffff;fill-opacity:1;stroke:none;"/><g clip-rule="nonzero" clip-path="url(#b4bbd68e68)"><path style=" stroke:none;fill-rule:nonzero;fill:#000000;fill-opacity:1;" d="M 723.601562 278.261719 L 723.601562 220.675781 C 734.328125 218.429688 745.3125 220.152344 756.867188 221.96875 C 764.773438 223.214844 772.835938 224.484375 781.039062 224.484375 C 787.441406 224.550781 793.707031 223.644531 799.828125 221.765625 L 804.042969 220.4375 L 804.042969 160.917969 L 796.214844 163.382812 C 784.15625 167.179688 771.808594 165.234375 758.738281 163.175781 C 744.871094 160.992188 730.53125 158.734375 715.777344 163.382812 L 711.566406 164.707031 L 711.566406 278.746094 L 611.972656 379.488281 L 611.972656 609.425781 L 670.949219 609.425781 L 670.949219 520.277344 C 670.949219 493.496094 692.039062 470.960938 718.820312 470.332031 C 720.449219 470.292969 722.078125 470.335938 723.703125 470.460938 C 725.328125 470.585938 726.945312 470.792969 728.550781 471.078125 C 730.15625 471.363281 731.742188 471.726562 733.3125 472.171875 C 734.882812 472.613281 736.425781 473.136719 737.941406 473.734375 C 739.460938 474.332031 740.945312 475 742.394531 475.746094 C 743.84375 476.492188 745.253906 477.308594 746.625 478.191406 C 747.992188 479.078125 749.316406 480.03125 750.589844 481.046875 C 751.863281 482.066406 753.082031 483.144531 754.25 484.28125 C 755.417969 485.421875 756.523438 486.613281 757.574219 487.863281 C 758.621094 489.113281 759.605469 490.410156 760.523438 491.757812 C 761.441406 493.105469 762.289062 494.496094 763.070312 495.925781 C 763.851562 497.359375 764.558594 498.824219 765.191406 500.328125 C 765.824219 501.828125 766.382812 503.359375 766.863281 504.917969 C 767.347656 506.472656 767.75 508.050781 768.074219 509.648438 C 768.398438 511.246094 768.640625 512.859375 768.804688 514.480469 C 768.96875 516.101562 769.050781 517.726562 769.054688 519.359375 L 769.054688 609.425781 L 828.027344 609.425781 L 828.027344 379.585938 Z M 720 429.351562 C 718.261719 429.351562 716.523438 429.265625 714.789062 429.097656 C 713.054688 428.925781 711.335938 428.671875 709.628906 428.332031 C 707.921875 427.992188 706.234375 427.570312 704.566406 427.0625 C 702.898438 426.558594 701.261719 425.972656 699.652344 425.304688 C 698.042969 424.640625 696.472656 423.894531 694.9375 423.074219 C 693.402344 422.253906 691.910156 421.359375 690.460938 420.394531 C 689.011719 419.425781 687.617188 418.390625 686.269531 417.285156 C 684.925781 416.183594 683.636719 415.015625 682.402344 413.78125 C 681.171875 412.550781 680.003906 411.261719 678.898438 409.917969 C 677.796875 408.570312 676.757812 407.175781 675.792969 405.726562 C 674.824219 404.28125 673.929688 402.789062 673.109375 401.253906 C 672.289062 399.71875 671.542969 398.144531 670.878906 396.539062 C 670.210938 394.929688 669.625 393.292969 669.121094 391.625 C 668.613281 389.960938 668.191406 388.273438 667.851562 386.566406 C 667.511719 384.859375 667.257812 383.136719 667.085938 381.40625 C 666.914062 379.671875 666.832031 377.933594 666.832031 376.195312 C 666.832031 374.453125 666.914062 372.714844 667.085938 370.984375 C 667.257812 369.25 667.511719 367.53125 667.851562 365.824219 C 668.191406 364.117188 668.613281 362.429688 669.121094 360.761719 C 669.625 359.097656 670.210938 357.460938 670.878906 355.851562 C 671.542969 354.242188 672.289062 352.671875 673.109375 351.136719 C 673.929688 349.601562 674.824219 348.109375 675.792969 346.660156 C 676.757812 345.214844 677.792969 343.816406 678.898438 342.472656 C 680.003906 341.125 681.171875 339.835938 682.402344 338.605469 C 683.636719 337.375 684.921875 336.207031 686.269531 335.101562 C 687.617188 334 689.011719 332.960938 690.460938 331.996094 C 691.910156 331.027344 693.402344 330.132812 694.9375 329.3125 C 696.472656 328.492188 698.042969 327.75 699.652344 327.082031 C 701.261719 326.417969 702.898438 325.832031 704.566406 325.324219 C 706.234375 324.820312 707.917969 324.398438 709.628906 324.058594 C 711.335938 323.71875 713.054688 323.464844 714.789062 323.292969 C 716.523438 323.121094 718.257812 323.035156 720 323.035156 C 721.742188 323.035156 723.480469 323.121094 725.210938 323.292969 C 726.945312 323.464844 728.664062 323.71875 730.375 324.058594 C 732.082031 324.398438 733.769531 324.820312 735.433594 325.324219 C 737.101562 325.832031 738.738281 326.417969 740.347656 327.082031 C 741.957031 327.75 743.527344 328.492188 745.066406 329.3125 C 746.601562 330.132812 748.09375 331.027344 749.539062 331.996094 C 750.988281 332.960938 752.386719 334 753.730469 335.101562 C 755.078125 336.207031 756.367188 337.375 757.597656 338.605469 C 758.828125 339.835938 759.996094 341.125 761.101562 342.472656 C 762.207031 343.816406 763.242188 345.214844 764.210938 346.660156 C 765.175781 348.109375 766.070312 349.601562 766.890625 351.136719 C 767.714844 352.671875 768.457031 354.242188 769.125 355.851562 C 769.789062 357.460938 770.375 359.097656 770.882812 360.761719 C 771.386719 362.429688 771.808594 364.117188 772.148438 365.824219 C 772.488281 367.53125 772.742188 369.25 772.914062 370.984375 C 773.085938 372.714844 773.171875 374.453125 773.171875 376.195312 C 773.167969 377.933594 773.082031 379.671875 772.910156 381.402344 C 772.738281 383.136719 772.480469 384.855469 772.140625 386.5625 C 771.796875 388.265625 771.375 389.953125 770.867188 391.617188 C 770.359375 393.285156 769.773438 394.921875 769.105469 396.527344 C 768.441406 398.136719 767.695312 399.707031 766.875 401.242188 C 766.054688 402.777344 765.160156 404.265625 764.191406 405.714844 C 763.222656 407.160156 762.1875 408.554688 761.082031 409.902344 C 759.980469 411.246094 758.8125 412.535156 757.582031 413.765625 C 756.347656 414.996094 755.0625 416.164062 753.714844 417.265625 C 752.371094 418.371094 750.972656 419.40625 749.527344 420.375 C 748.078125 421.34375 746.589844 422.238281 745.054688 423.058594 C 743.519531 423.878906 741.945312 424.621094 740.339844 425.289062 C 738.730469 425.957031 737.09375 426.542969 735.429688 427.050781 C 733.761719 427.554688 732.078125 427.980469 730.371094 428.320312 C 728.664062 428.660156 726.941406 428.917969 725.210938 429.089844 C 723.480469 429.261719 721.742188 429.351562 720 429.351562 Z M 720 429.351562 "/></g><path style=" stroke:none;fill-rule:nonzero;fill:#000000;fill-opacity:1;" d="M 720 339.074219 C 718.785156 339.074219 717.570312 339.136719 716.363281 339.253906 C 715.152344 339.375 713.949219 339.550781 712.757812 339.789062 C 711.566406 340.027344 710.386719 340.320312 709.222656 340.675781 C 708.058594 341.027344 706.917969 341.4375 705.792969 341.902344 C 704.667969 342.367188 703.570312 342.886719 702.5 343.457031 C 701.425781 344.03125 700.386719 344.65625 699.375 345.332031 C 698.363281 346.007812 697.386719 346.730469 696.445312 347.5 C 695.507812 348.273438 694.605469 349.089844 693.746094 349.949219 C 692.886719 350.808594 692.070312 351.707031 691.300781 352.648438 C 690.527344 353.585938 689.804688 354.5625 689.128906 355.574219 C 688.453125 356.582031 687.828125 357.625 687.257812 358.695312 C 686.683594 359.769531 686.164062 360.867188 685.699219 361.988281 C 685.234375 363.113281 684.824219 364.257812 684.472656 365.421875 C 684.117188 366.582031 683.824219 367.761719 683.585938 368.953125 C 683.347656 370.144531 683.171875 371.347656 683.050781 372.558594 C 682.933594 373.765625 682.871094 374.980469 682.871094 376.195312 C 682.871094 377.410156 682.933594 378.625 683.050781 379.832031 C 683.171875 381.042969 683.347656 382.246094 683.585938 383.4375 C 683.824219 384.628906 684.117188 385.808594 684.472656 386.96875 C 684.824219 388.132812 685.234375 389.277344 685.699219 390.398438 C 686.164062 391.523438 686.683594 392.621094 687.257812 393.691406 C 687.828125 394.765625 688.453125 395.808594 689.128906 396.816406 C 689.804688 397.828125 690.527344 398.804688 691.300781 399.742188 C 692.070312 400.683594 692.886719 401.582031 693.746094 402.441406 C 694.605469 403.300781 695.507812 404.117188 696.445312 404.890625 C 697.386719 405.660156 698.363281 406.382812 699.375 407.058594 C 700.382812 407.734375 701.425781 408.359375 702.5 408.929688 C 703.570312 409.503906 704.667969 410.023438 705.792969 410.488281 C 706.914062 410.953125 708.058594 411.363281 709.222656 411.714844 C 710.386719 412.070312 711.566406 412.363281 712.757812 412.601562 C 713.949219 412.839844 715.152344 413.015625 716.359375 413.136719 C 717.570312 413.253906 718.785156 413.316406 720 413.316406 C 721.214844 413.316406 722.429688 413.253906 723.640625 413.136719 C 724.851562 413.015625 726.050781 412.839844 727.242188 412.601562 C 728.4375 412.363281 729.613281 412.070312 730.777344 411.714844 C 731.941406 411.363281 733.085938 410.953125 734.207031 410.488281 C 735.332031 410.023438 736.429688 409.503906 737.503906 408.929688 C 738.574219 408.359375 739.617188 407.734375 740.628906 407.058594 C 741.640625 406.382812 742.613281 405.660156 743.554688 404.886719 C 744.496094 404.117188 745.394531 403.300781 746.253906 402.441406 C 747.113281 401.582031 747.929688 400.683594 748.699219 399.742188 C 749.472656 398.804688 750.195312 397.828125 750.871094 396.816406 C 751.546875 395.804688 752.171875 394.765625 752.746094 393.691406 C 753.316406 392.621094 753.835938 391.523438 754.300781 390.398438 C 754.769531 389.277344 755.175781 388.132812 755.53125 386.96875 C 755.882812 385.804688 756.179688 384.628906 756.414062 383.4375 C 756.652344 382.242188 756.832031 381.042969 756.949219 379.832031 C 757.070312 378.621094 757.128906 377.410156 757.128906 376.195312 C 757.125 374.980469 757.066406 373.765625 756.945312 372.558594 C 756.824219 371.347656 756.644531 370.148438 756.40625 368.957031 C 756.167969 367.765625 755.875 366.585938 755.519531 365.425781 C 755.167969 364.261719 754.757812 363.117188 754.289062 361.996094 C 753.824219 360.875 753.304688 359.777344 752.730469 358.707031 C 752.160156 357.632812 751.535156 356.59375 750.859375 355.582031 C 750.183594 354.570312 749.460938 353.597656 748.6875 352.65625 C 747.917969 351.71875 747.101562 350.820312 746.242188 349.960938 C 745.382812 349.101562 744.484375 348.285156 743.542969 347.515625 C 742.605469 346.742188 741.628906 346.019531 740.617188 345.34375 C 739.609375 344.667969 738.566406 344.042969 737.496094 343.472656 C 736.421875 342.898438 735.324219 342.378906 734.203125 341.914062 C 733.078125 341.445312 731.9375 341.039062 730.773438 340.683594 C 729.609375 340.328125 728.433594 340.035156 727.242188 339.796875 C 726.050781 339.558594 724.847656 339.378906 723.640625 339.257812 C 722.429688 339.136719 721.21875 339.078125 720 339.074219 Z M 741.484375 381.539062 L 720 381.539062 C 719.648438 381.539062 719.300781 381.503906 718.957031 381.433594 C 718.613281 381.367188 718.28125 381.265625 717.953125 381.132812 C 717.628906 380.996094 717.324219 380.832031 717.03125 380.636719 C 716.738281 380.441406 716.46875 380.21875 716.21875 379.972656 C 715.972656 379.722656 715.75 379.453125 715.554688 379.164062 C 715.359375 378.871094 715.195312 378.5625 715.0625 378.238281 C 714.925781 377.914062 714.824219 377.578125 714.757812 377.234375 C 714.6875 376.890625 714.652344 376.542969 714.652344 376.191406 L 714.652344 354.714844 C 714.652344 354.367188 714.6875 354.019531 714.757812 353.671875 C 714.824219 353.328125 714.925781 352.996094 715.0625 352.671875 C 715.195312 352.347656 715.359375 352.039062 715.554688 351.746094 C 715.75 351.453125 715.972656 351.183594 716.21875 350.9375 C 716.46875 350.6875 716.738281 350.464844 717.03125 350.269531 C 717.324219 350.074219 717.628906 349.910156 717.953125 349.777344 C 718.277344 349.644531 718.613281 349.542969 718.957031 349.472656 C 719.300781 349.40625 719.648438 349.371094 720 349.371094 C 720.351562 349.371094 720.699219 349.40625 721.042969 349.472656 C 721.390625 349.542969 721.722656 349.644531 722.046875 349.777344 C 722.371094 349.910156 722.679688 350.074219 722.972656 350.269531 C 723.265625 350.464844 723.535156 350.6875 723.78125 350.9375 C 724.03125 351.183594 724.253906 351.453125 724.449219 351.746094 C 724.640625 352.039062 724.808594 352.347656 724.941406 352.671875 C 725.074219 352.996094 725.175781 353.328125 725.246094 353.671875 C 725.3125 354.019531 725.347656 354.367188 725.347656 354.714844 L 725.347656 370.847656 L 741.484375 370.847656 C 741.835938 370.847656 742.183594 370.882812 742.527344 370.949219 C 742.871094 371.019531 743.207031 371.121094 743.53125 371.253906 C 743.855469 371.390625 744.164062 371.554688 744.457031 371.75 C 744.746094 371.945312 745.019531 372.164062 745.265625 372.414062 C 745.515625 372.664062 745.734375 372.933594 745.929688 373.222656 C 746.125 373.515625 746.289062 373.824219 746.425781 374.148438 C 746.558594 374.472656 746.660156 374.808594 746.730469 375.152344 C 746.796875 375.496094 746.832031 375.84375 746.832031 376.195312 C 746.832031 376.546875 746.796875 376.894531 746.730469 377.238281 C 746.660156 377.582031 746.558594 377.917969 746.425781 378.242188 C 746.289062 378.566406 746.125 378.871094 745.929688 379.164062 C 745.734375 379.457031 745.515625 379.726562 745.265625 379.976562 C 745.019531 380.222656 744.746094 380.445312 744.457031 380.640625 C 744.164062 380.835938 743.855469 381 743.53125 381.132812 C 743.207031 381.269531 742.871094 381.371094 742.527344 381.4375 C 742.183594 381.507812 741.835938 381.539062 741.484375 381.539062 Z M 741.484375 381.539062 "/><g clip-rule="nonzero" clip-path="url(#48ee1f3109)"><path style=" stroke:none;fill-rule:nonzero;fill:#000000;fill-opacity:1;" d="M 999.144531 593.386719 L 970.867188 593.386719 L 970.867188 384.21875 L 997.183594 384.21875 C 997.707031 384.21875 998.230469 384.167969 998.746094 384.0625 C 999.261719 383.960938 999.765625 383.808594 1000.25 383.605469 C 1000.738281 383.40625 1001.199219 383.160156 1001.636719 382.867188 C 1002.074219 382.574219 1002.480469 382.242188 1002.851562 381.867188 C 1003.226562 381.496094 1003.558594 381.089844 1003.851562 380.652344 C 1004.144531 380.214844 1004.390625 379.753906 1004.59375 379.265625 C 1004.792969 378.78125 1004.945312 378.277344 1005.046875 377.761719 C 1005.152344 377.246094 1005.203125 376.726562 1005.203125 376.199219 L 1005.203125 358.613281 C 1005.203125 357.460938 1004.964844 356.359375 1004.492188 355.308594 C 1004.015625 354.257812 1003.34375 353.351562 1002.480469 352.589844 L 941.347656 298.832031 C 940.617188 298.1875 939.792969 297.695312 938.882812 297.351562 C 937.96875 297.007812 937.027344 296.835938 936.050781 296.835938 L 765.777344 296.835938 L 839.304688 368.175781 L 841.636719 370.4375 C 842.414062 371.191406 843.015625 372.070312 843.4375 373.066406 C 843.859375 374.066406 844.070312 375.105469 844.070312 376.191406 L 844.070312 609.425781 L 999.144531 609.425781 C 999.675781 609.429688 1000.199219 609.382812 1000.722656 609.285156 C 1001.242188 609.1875 1001.75 609.039062 1002.238281 608.839844 C 1002.730469 608.640625 1003.199219 608.394531 1003.640625 608.101562 C 1004.082031 607.8125 1004.492188 607.480469 1004.867188 607.105469 C 1005.246094 606.734375 1005.582031 606.328125 1005.878906 605.886719 C 1006.175781 605.449219 1006.425781 604.984375 1006.628906 604.496094 C 1006.832031 604.003906 1006.988281 603.5 1007.089844 602.980469 C 1007.195312 602.460938 1007.246094 601.9375 1007.246094 601.40625 C 1007.246094 600.875 1007.195312 600.351562 1007.089844 599.832031 C 1006.988281 599.3125 1006.832031 598.808594 1006.628906 598.320312 C 1006.425781 597.832031 1006.175781 597.367188 1005.878906 596.925781 C 1005.582031 596.488281 1005.246094 596.082031 1004.867188 595.707031 C 1004.492188 595.335938 1004.082031 595.003906 1003.640625 594.710938 C 1003.199219 594.417969 1002.730469 594.175781 1002.238281 593.976562 C 1001.75 593.777344 1001.242188 593.625 1000.722656 593.527344 C 1000.199219 593.429688 999.675781 593.382812 999.144531 593.386719 Z M 929.039062 546.53125 C 929.039062 547.058594 928.988281 547.582031 928.886719 548.097656 C 928.785156 548.613281 928.632812 549.117188 928.429688 549.601562 C 928.226562 550.089844 927.980469 550.550781 927.6875 550.988281 C 927.394531 551.425781 927.0625 551.832031 926.691406 552.203125 C 926.316406 552.574219 925.914062 552.90625 925.472656 553.199219 C 925.035156 553.492188 924.574219 553.738281 924.085938 553.941406 C 923.601562 554.144531 923.097656 554.292969 922.582031 554.398438 C 922.066406 554.5 921.542969 554.550781 921.015625 554.550781 L 879.984375 554.550781 C 879.460938 554.550781 878.9375 554.5 878.421875 554.398438 C 877.90625 554.292969 877.402344 554.140625 876.917969 553.941406 C 876.429688 553.738281 875.96875 553.492188 875.53125 553.199219 C 875.09375 552.90625 874.6875 552.574219 874.316406 552.203125 C 873.941406 551.828125 873.609375 551.425781 873.316406 550.988281 C 873.023438 550.546875 872.777344 550.085938 872.574219 549.601562 C 872.375 549.113281 872.222656 548.613281 872.121094 548.097656 C 872.015625 547.578125 871.964844 547.058594 871.964844 546.53125 L 871.964844 505.507812 C 871.964844 504.980469 872.015625 504.460938 872.121094 503.941406 C 872.222656 503.425781 872.375 502.925781 872.574219 502.4375 C 872.777344 501.953125 873.023438 501.488281 873.316406 501.050781 C 873.609375 500.613281 873.941406 500.210938 874.316406 499.835938 C 874.6875 499.464844 875.09375 499.132812 875.53125 498.839844 C 875.96875 498.546875 876.429688 498.300781 876.917969 498.097656 C 877.402344 497.898438 877.90625 497.746094 878.421875 497.640625 C 878.9375 497.539062 879.460938 497.488281 879.984375 497.488281 L 921.015625 497.488281 C 921.542969 497.488281 922.066406 497.539062 922.582031 497.640625 C 923.097656 497.746094 923.601562 497.898438 924.085938 498.097656 C 924.574219 498.300781 925.035156 498.546875 925.472656 498.839844 C 925.910156 499.132812 926.316406 499.464844 926.6875 499.835938 C 927.0625 500.210938 927.394531 500.613281 927.6875 501.050781 C 927.980469 501.488281 928.226562 501.953125 928.425781 502.4375 C 928.628906 502.925781 928.78125 503.425781 928.882812 503.941406 C 928.988281 504.460938 929.039062 504.980469 929.039062 505.507812 Z M 929.039062 471.019531 C 929.039062 471.546875 928.988281 472.066406 928.886719 472.582031 C 928.785156 473.101562 928.632812 473.601562 928.429688 474.085938 C 928.226562 474.574219 927.980469 475.035156 927.6875 475.472656 C 927.394531 475.910156 927.0625 476.316406 926.691406 476.6875 C 926.316406 477.0625 925.914062 477.394531 925.472656 477.6875 C 925.035156 477.976562 924.574219 478.226562 924.085938 478.425781 C 923.601562 478.628906 923.097656 478.78125 922.582031 478.882812 C 922.066406 478.984375 921.542969 479.035156 921.015625 479.035156 L 879.984375 479.035156 C 879.460938 479.035156 878.9375 478.984375 878.421875 478.882812 C 877.90625 478.777344 877.402344 478.625 876.917969 478.425781 C 876.429688 478.222656 875.96875 477.976562 875.53125 477.683594 C 875.09375 477.390625 874.6875 477.058594 874.316406 476.6875 C 873.941406 476.316406 873.609375 475.910156 873.316406 475.472656 C 873.023438 475.035156 872.777344 474.570312 872.574219 474.085938 C 872.375 473.597656 872.222656 473.097656 872.121094 472.582031 C 872.015625 472.066406 871.964844 471.542969 871.964844 471.015625 L 871.964844 429.992188 C 871.964844 429.464844 872.015625 428.945312 872.121094 428.429688 C 872.222656 427.914062 872.375 427.410156 872.574219 426.925781 C 872.777344 426.4375 873.023438 425.976562 873.316406 425.539062 C 873.609375 425.101562 873.941406 424.695312 874.316406 424.324219 C 874.6875 423.949219 875.09375 423.617188 875.53125 423.324219 C 875.96875 423.03125 876.429688 422.785156 876.917969 422.585938 C 877.402344 422.382812 877.90625 422.230469 878.421875 422.128906 C 878.9375 422.023438 879.460938 421.972656 879.984375 421.972656 L 921.015625 421.972656 C 921.542969 421.972656 922.066406 422.023438 922.582031 422.128906 C 923.097656 422.230469 923.601562 422.382812 924.085938 422.585938 C 924.574219 422.785156 925.035156 423.03125 925.472656 423.324219 C 925.910156 423.617188 926.316406 423.949219 926.6875 424.324219 C 927.0625 424.695312 927.394531 425.101562 927.6875 425.539062 C 927.980469 425.976562 928.226562 426.4375 928.425781 426.925781 C 928.628906 427.410156 928.78125 427.914062 928.882812 428.429688 C 928.988281 428.945312 929.039062 429.464844 929.039062 429.992188 Z M 929.039062 471.019531 "/></g><g clip-rule="nonzero" clip-path="url(#1b2e3f1a5e)"><path style=" stroke:none;fill-rule:nonzero;fill:#000000;fill-opacity:1;" d="M 671.128906 296.835938 L 503.949219 296.835938 C 502.972656 296.835938 502.03125 297.007812 501.117188 297.351562 C 500.207031 297.695312 499.382812 298.1875 498.652344 298.832031 L 437.519531 352.589844 C 436.65625 353.351562 435.984375 354.257812 435.511719 355.308594 C 435.035156 356.359375 434.796875 357.460938 434.796875 358.613281 L 434.796875 376.195312 C 434.796875 376.722656 434.847656 377.242188 434.949219 377.757812 C 435.054688 378.277344 435.207031 378.777344 435.40625 379.265625 C 435.609375 379.75 435.855469 380.214844 436.148438 380.652344 C 436.441406 381.089844 436.773438 381.496094 437.144531 381.867188 C 437.519531 382.238281 437.921875 382.574219 438.359375 382.867188 C 438.800781 383.15625 439.261719 383.40625 439.746094 383.605469 C 440.234375 383.808594 440.738281 383.960938 441.253906 384.0625 C 441.769531 384.167969 442.292969 384.21875 442.820312 384.21875 L 469.132812 384.21875 L 469.132812 593.386719 L 440.855469 593.386719 C 440.328125 593.382812 439.800781 593.429688 439.28125 593.527344 C 438.761719 593.625 438.253906 593.777344 437.761719 593.976562 C 437.273438 594.175781 436.804688 594.417969 436.363281 594.710938 C 435.917969 595.003906 435.511719 595.335938 435.132812 595.707031 C 434.757812 596.082031 434.421875 596.488281 434.125 596.925781 C 433.828125 597.367188 433.578125 597.832031 433.375 598.320312 C 433.171875 598.808594 433.015625 599.3125 432.910156 599.832031 C 432.808594 600.351562 432.753906 600.875 432.753906 601.40625 C 432.753906 601.9375 432.808594 602.460938 432.910156 602.980469 C 433.015625 603.5 433.171875 604.003906 433.375 604.496094 C 433.578125 604.984375 433.828125 605.449219 434.125 605.886719 C 434.421875 606.328125 434.757812 606.734375 435.132812 607.105469 C 435.511719 607.480469 435.917969 607.8125 436.363281 608.101562 C 436.804688 608.394531 437.273438 608.640625 437.761719 608.839844 C 438.253906 609.039062 438.761719 609.1875 439.28125 609.285156 C 439.800781 609.382812 440.328125 609.429688 440.855469 609.425781 L 595.929688 609.425781 L 595.929688 376.195312 C 595.929688 375.140625 596.132812 374.125 596.53125 373.148438 C 596.933594 372.171875 597.503906 371.308594 598.246094 370.558594 L 600.601562 368.175781 Z M 568.039062 546.53125 C 568.039062 547.058594 567.988281 547.578125 567.882812 548.097656 C 567.78125 548.613281 567.628906 549.113281 567.425781 549.601562 C 567.226562 550.085938 566.980469 550.550781 566.6875 550.988281 C 566.394531 551.425781 566.0625 551.828125 565.6875 552.203125 C 565.316406 552.574219 564.910156 552.90625 564.472656 553.199219 C 564.035156 553.492188 563.574219 553.738281 563.085938 553.941406 C 562.597656 554.140625 562.097656 554.292969 561.582031 554.398438 C 561.066406 554.5 560.542969 554.550781 560.015625 554.550781 L 518.984375 554.550781 C 518.457031 554.550781 517.9375 554.5 517.421875 554.398438 C 516.902344 554.292969 516.402344 554.140625 515.914062 553.941406 C 515.429688 553.738281 514.96875 553.492188 514.527344 553.199219 C 514.089844 552.90625 513.6875 552.574219 513.3125 552.203125 C 512.941406 551.828125 512.609375 551.425781 512.316406 550.988281 C 512.023438 550.546875 511.777344 550.085938 511.574219 549.601562 C 511.375 549.113281 511.222656 548.613281 511.117188 548.097656 C 511.015625 547.578125 510.964844 547.058594 510.964844 546.53125 L 510.964844 505.507812 C 510.964844 504.980469 511.015625 504.460938 511.117188 503.941406 C 511.222656 503.425781 511.375 502.925781 511.574219 502.4375 C 511.777344 501.953125 512.023438 501.488281 512.316406 501.050781 C 512.609375 500.613281 512.941406 500.210938 513.3125 499.835938 C 513.6875 499.464844 514.089844 499.132812 514.53125 498.839844 C 514.96875 498.546875 515.429688 498.300781 515.914062 498.097656 C 516.402344 497.898438 516.902344 497.746094 517.421875 497.640625 C 517.9375 497.539062 518.457031 497.488281 518.984375 497.488281 L 560.019531 497.488281 C 560.542969 497.488281 561.066406 497.539062 561.582031 497.640625 C 562.097656 497.746094 562.601562 497.898438 563.085938 498.097656 C 563.574219 498.300781 564.035156 498.546875 564.472656 498.839844 C 564.914062 499.132812 565.316406 499.464844 565.691406 499.835938 C 566.0625 500.210938 566.394531 500.613281 566.6875 501.050781 C 566.980469 501.488281 567.226562 501.953125 567.429688 502.4375 C 567.628906 502.925781 567.78125 503.425781 567.886719 503.941406 C 567.988281 504.460938 568.039062 504.980469 568.039062 505.507812 Z M 568.039062 471.015625 C 568.039062 471.542969 567.988281 472.066406 567.882812 472.582031 C 567.78125 473.097656 567.628906 473.597656 567.425781 474.085938 C 567.226562 474.574219 566.976562 475.035156 566.6875 475.472656 C 566.394531 475.910156 566.0625 476.316406 565.6875 476.6875 C 565.316406 477.058594 564.910156 477.390625 564.472656 477.683594 C 564.035156 477.976562 563.574219 478.222656 563.085938 478.425781 C 562.597656 478.628906 562.097656 478.777344 561.582031 478.882812 C 561.066406 478.984375 560.542969 479.035156 560.015625 479.035156 L 518.984375 479.035156 C 518.457031 479.035156 517.9375 478.984375 517.421875 478.882812 C 516.902344 478.777344 516.402344 478.628906 515.914062 478.425781 C 515.429688 478.222656 514.96875 477.976562 514.53125 477.683594 C 514.089844 477.390625 513.6875 477.058594 513.3125 476.6875 C 512.941406 476.316406 512.609375 475.910156 512.316406 475.472656 C 512.023438 475.035156 511.777344 474.570312 511.574219 474.085938 C 511.375 473.597656 511.222656 473.097656 511.117188 472.582031 C 511.015625 472.066406 510.964844 471.542969 510.964844 471.015625 L 510.964844 429.992188 C 510.964844 429.464844 511.015625 428.945312 511.117188 428.429688 C 511.222656 427.914062 511.375 427.410156 511.574219 426.925781 C 511.777344 426.4375 512.023438 425.976562 512.316406 425.539062 C 512.609375 425.101562 512.941406 424.695312 513.3125 424.324219 C 513.6875 423.949219 514.089844 423.617188 514.527344 423.324219 C 514.96875 423.03125 515.429688 422.785156 515.914062 422.582031 C 516.402344 422.382812 516.902344 422.230469 517.421875 422.128906 C 517.9375 422.023438 518.457031 421.972656 518.984375 421.972656 L 560.019531 421.972656 C 560.542969 421.972656 561.066406 422.023438 561.582031 422.128906 C 562.097656 422.230469 562.601562 422.382812 563.085938 422.585938 C 563.574219 422.785156 564.035156 423.03125 564.472656 423.324219 C 564.914062 423.617188 565.316406 423.949219 565.691406 424.324219 C 566.0625 424.695312 566.394531 425.101562 566.6875 425.539062 C 566.980469 425.976562 567.226562 426.4375 567.429688 426.925781 C 567.628906 427.410156 567.78125 427.914062 567.886719 428.429688 C 567.988281 428.945312 568.039062 429.464844 568.039062 429.992188 Z M 568.039062 471.015625 "/></g></g></svg>